<?xml version="1.0" encoding="utf-8"?>
<!-- Generator: Adobe Illustrator 26.0.1, SVG Export Plug-In . SVG Version: 6.00 Build 0)  -->
<svg version="1.1" id="Layer_1" xmlns="http://www.w3.org/2000/svg" xmlns:xlink="http://www.w3.org/1999/xlink" x="0px" y="0px"
	 viewBox="0 0 75 21" style="enable-background:new 0 0 75 21;" xml:space="preserve">
<style type="text/css">
	.st0{fill-rule:evenodd;clip-rule:evenodd;fill:#C2C2C4;}
</style>
<g>
	<g>
		<path class="st0" d="M42.1,9.2c0-0.5,0-0.9-0.1-1.2c-0.1-0.3-0.2-0.5-0.4-0.7c-0.2-0.2-0.5-0.3-0.8-0.4c-0.3-0.1-0.7-0.1-1.2-0.1
			h-7.9v5.8h7.9c0.5,0,0.8,0,1.2-0.1c0.3-0.1,0.6-0.2,0.8-0.3c0.2-0.2,0.3-0.4,0.4-0.7c0.1-0.3,0.1-0.7,0.1-1.1L42.1,9.2L42.1,9.2z
			 M31.8,14.5v4.1h-2.2V4.8h10c0.9,0,1.6,0.1,2.2,0.2c0.6,0.2,1.1,0.4,1.4,0.8c0.4,0.4,0.6,0.8,0.8,1.4c0.1,0.6,0.2,1.2,0.2,2v1.2
			c0,0.8-0.1,1.5-0.2,2c-0.1,0.5-0.4,1-0.7,1.3c-0.4,0.3-0.8,0.6-1.4,0.7c-0.6,0.1-1.3,0.2-2.2,0.2C39.7,14.5,31.8,14.5,31.8,14.5z
			 M48.7,13.3h7.2L52.3,7L48.7,13.3z M57,15.2h-9.4l-2,3.4h-2.5l7.6-13c0.2-0.3,0.4-0.6,0.6-0.8c0.2-0.2,0.6-0.3,1-0.3
			c0.4,0,0.8,0.1,1,0.3C53.6,5,53.8,5.3,54,5.6l7.6,13H59C59,18.6,57,15.2,57,15.2z M65.3,18.6v-6.7l-7.5-7.2h3l5.7,5.3l5.8-5.3H75
			L67.4,12v6.7H65.3z"/>
	</g>
	<g transform="translate(75.031)">
		<path class="st0" d="M-56.7,2.2c0-0.2-0.1-0.4-0.1-0.7l0-0.2h-0.2c-3,0-6.4-0.5-8.5-1.2l-0.1,0l-0.1,0c-2.1,0.7-5.5,1.2-8.5,1.2
			h-0.2l0,0.2c-0.3,1.7-0.4,3.3-0.3,4.8c0.2,7.8,4.4,12.5,9.1,13.9l0.1,0l0.1,0c0,0,0.1,0,0.1,0c3.2-1,6.1-3.5,7.8-7.5
			c-0.1-0.1-0.3-0.2-0.4-0.3l-0.5-0.5c-0.1-0.1-0.1-0.1-0.2-0.2c-0.7,2.1-1.8,3.8-3.3,5.1c-1,0.9-2.1,1.5-3.3,1.9l-0.2-17.2l0.1,0
			l0.1,0c1.9,0.6,4.6,1,7.2,1.1l0.2,0l0,0.2l0,0.1c0.1-0.1,0.2-0.1,0.2-0.2c0.2-0.1,0.4-0.3,0.6-0.4C-57.1,2.3-56.9,2.2-56.7,2.2"/>
		<path class="st0" d="M-50.7,6.6l-1.8,1.8l0.4,2.5l-2.3-1.2l-2.3,1.2l0.4-2.5L-58,6.6l2.5-0.4l1.1-2.3l1.1,2.3L-50.7,6.6L-50.7,6.6
			z M-50.1,5.3c-0.1-0.1-0.2-0.3-0.3-0.4c-0.1-0.2-0.3-0.4-0.5-0.5C-50.9,4.3-51,4.3-51,4.2c-0.1-0.1-0.2-0.2-0.4-0.3
			c-0.1-0.1-0.3-0.2-0.4-0.3c-0.1,0-0.1-0.1-0.2-0.1C-52.7,3.2-53.5,3-54.4,3c-0.9,0-1.7,0.2-2.4,0.6c-0.1,0-0.1,0.1-0.2,0.1
			c-0.1,0.1-0.3,0.2-0.4,0.3c-0.1,0.1-0.2,0.2-0.4,0.3c-0.1,0.1-0.1,0.1-0.2,0.2c-0.2,0.2-0.3,0.3-0.5,0.5c-0.4,0.6-0.7,1.2-0.9,1.9
			c-0.1,0.3-0.1,0.6-0.1,1c0,0.5,0.1,1,0.2,1.5c0.1,0.2,0.2,0.5,0.3,0.7c0.1,0.1,0.1,0.3,0.2,0.4c0,0.1,0.1,0.1,0.1,0.2
			c0.1,0.1,0.2,0.3,0.3,0.4c0.2,0.2,0.4,0.5,0.7,0.7c0.1,0.1,0.2,0.2,0.4,0.3c0.1,0.1,0.3,0.2,0.4,0.2c0.7,0.4,1.5,0.6,2.4,0.6
			c0.9,0,1.7-0.2,2.4-0.6c0.1,0,0.1-0.1,0.2-0.1c0.2-0.1,0.4-0.3,0.6-0.4c0.1-0.1,0.2-0.2,0.4-0.3s0.2-0.2,0.3-0.3
			c0.1-0.1,0.2-0.2,0.3-0.4c0-0.1,0.1-0.1,0.1-0.2c0.5-0.7,0.7-1.6,0.7-2.5C-49.4,6.9-49.7,6-50.1,5.3z"/>
	</g>
</g>
</svg>
