<?xml version="1.0" encoding="utf-8"?>
<!-- Generator: Adobe Illustrator 26.0.1, SVG Export Plug-In . SVG Version: 6.00 Build 0)  -->
<svg version="1.1" id="Layer_1" xmlns="http://www.w3.org/2000/svg" xmlns:xlink="http://www.w3.org/1999/xlink" x="0px" y="0px"
	 viewBox="0 0 119.8 31" style="enable-background:new 0 0 119.8 31;" xml:space="preserve">
<style type="text/css">
	.st0{fill:#C2C2C4;}
</style>
<g id="Group_00000012431774990844230450000002315459546349578640_" transform="translate(103.428041, 0.000000)">
	<g transform="translate(27.542821, 6.458317)">
		<path id="Path_2338_42_" class="st0" d="M-97.2,12.2V20h-2.9V7.2c0-1,0.1-2.1,0.3-3.1c0.2-0.8,0.5-1.5,1-2.1
			c0.5-0.6,1.2-0.9,2-1.1c1-0.3,2-0.4,3.1-0.4h11.4v2.9h-11.4c-1-0.1-2,0.2-2.7,0.9c-0.6,0.9-0.9,1.9-0.8,3v2.1H-86v2.9L-97.2,12.2z
			"/>
		<path id="Path_2339_42_" class="st0" d="M-74,20c-1,0-2.1-0.1-3.1-0.4c-0.7-0.2-1.4-0.6-2-1.1c-0.5-0.6-0.9-1.3-1-2.1
			c-0.2-1-0.3-2.1-0.3-3.1V7.2c0-1,0.1-2.1,0.3-3.1c0.2-0.8,0.5-1.5,1-2.1c0.5-0.6,1.2-0.9,2-1.1c1-0.3,2-0.4,3.1-0.4h6.3
			c1,0,2.1,0.1,3.1,0.4c0.7,0.2,1.4,0.6,2,1.1c0.5,0.6,0.9,1.3,1,2.1c0.2,1,0.3,2.1,0.3,3.1v6.1c0,1-0.1,2.1-0.3,3.1
			c-0.2,0.8-0.5,1.5-1,2.1c-0.5,0.6-1.2,0.9-2,1.1c-1,0.3-2.1,0.4-3.1,0.4L-74,20z M-64.2,7.2c0-0.6,0-1.2-0.2-1.9
			c-0.1-0.4-0.3-0.8-0.6-1.2c-0.3-0.3-0.7-0.5-1.1-0.6c-0.6-0.1-1.1-0.2-1.7-0.2H-74c-0.6,0-1.2,0-1.8,0.2c-0.4,0.1-0.8,0.3-1.1,0.6
			c-0.3,0.3-0.4,0.7-0.5,1.2c-0.1,0.6-0.1,1.2-0.1,1.9v6.1c0,0.6,0,1.3,0.1,1.9c0.1,0.4,0.2,0.8,0.5,1.2c0.3,0.3,0.7,0.5,1.1,0.6
			c0.6,0.1,1.2,0.2,1.8,0.2h6.3c0.6,0,1.1,0,1.7-0.2c0.4-0.1,0.8-0.3,1.1-0.6c0.3-0.3,0.5-0.7,0.6-1.2c0.1-0.6,0.2-1.3,0.2-1.9V7.2z
			"/>
		<path id="Path_2340_42_" class="st0" d="M-52.1,20c-1,0-2.1-0.1-3.1-0.4c-0.7-0.2-1.4-0.6-2-1.1c-0.5-0.6-0.9-1.3-1-2.1
			c-0.2-1-0.3-2.1-0.3-3.1V7.2c0-1,0.1-2.1,0.3-3.1c0.2-0.8,0.5-1.5,1-2.1c0.5-0.6,1.2-0.9,2-1.1c1-0.3,2-0.4,3.1-0.4h6.3
			c1,0,2.1,0.1,3.1,0.4c0.7,0.2,1.4,0.6,2,1.1c0.5,0.6,0.9,1.3,1,2.1c0.2,1,0.3,2.1,0.3,3.1v6.1c0,1-0.1,2.1-0.3,3.1
			c-0.2,0.8-0.5,1.5-1,2.1c-0.5,0.6-1.2,0.9-2,1.1c-1,0.3-2.1,0.4-3.1,0.4L-52.1,20z M-42.3,7.2c0-0.6,0-1.2-0.2-1.9
			c-0.1-0.4-0.3-0.8-0.6-1.2c-0.3-0.3-0.7-0.5-1.1-0.6c-0.6-0.1-1.1-0.2-1.7-0.2h-6.3c-0.6,0-1.2,0-1.8,0.2
			c-0.4,0.1-0.8,0.3-1.1,0.6c-0.3,0.3-0.4,0.7-0.5,1.2c-0.1,0.6-0.1,1.2-0.1,1.9v6.1c0,0.6,0,1.3,0.1,1.9c0.1,0.4,0.2,0.8,0.5,1.2
			c0.3,0.3,0.7,0.5,1.1,0.6c0.6,0.1,1.2,0.2,1.8,0.2h6.3c0.6,0,1.1,0,1.7-0.2c0.4-0.1,0.8-0.3,1.1-0.6c0.3-0.3,0.5-0.7,0.6-1.2
			c0.1-0.6,0.2-1.3,0.2-1.9V7.2z"/>
		<path id="Path_2341_42_" class="st0" d="M-36.5,20V0.5h13.2c1,0,2.1,0.1,3.1,0.4c0.7,0.2,1.4,0.6,2,1.1c0.5,0.6,0.9,1.3,1,2.1
			c0.2,1,0.3,2.1,0.3,3.1v6.1c0,1-0.1,2.1-0.3,3.1c-0.2,0.8-0.5,1.5-1,2.1c-0.5,0.6-1.2,0.9-2,1.1c-1,0.3-2.1,0.4-3.1,0.4L-36.5,20z
			 M-19.8,7.2c0-0.6,0-1.2-0.2-1.8c-0.1-0.4-0.3-0.8-0.6-1.2c-0.3-0.3-0.7-0.5-1.1-0.6c-0.6-0.1-1.1-0.2-1.7-0.2h-10.3v13.7h10.3
			c0.5,0,1.1,0,1.6-0.2c0.4-0.1,0.8-0.3,1.1-0.6c0.3-0.3,0.5-0.7,0.6-1.2c0.2-0.6,0.2-1.3,0.2-1.9L-19.8,7.2L-19.8,7.2z"/>
	</g>
	<g>
		<path id="Shape" class="st0" d="M-77.6,4.5c-0.1-0.2-0.3-0.5-0.5-0.7c-0.2-0.3-0.5-0.6-0.8-0.9l-0.3-0.3l-0.6-0.5l-0.6-0.4
			l-0.4-0.2c-1.2-0.7-2.6-1-4-1c-1.4,0-2.8,0.3-4,1l-0.4,0.2l-0.7,0.4l-0.6,0.5l-0.3,0.3c-0.3,0.3-0.6,0.6-0.8,0.9
			c-0.8,1-1.3,2.1-1.5,3.4c-0.1,0.6-0.2,1.1-0.2,1.7c0,0.9,0.1,1.7,0.4,2.5c0.1,0.4,0.3,0.8,0.4,1.2l0.4,0.7l0.2,0.3
			c0.1,0.2,0.3,0.5,0.5,0.7c0.3,0.4,0.7,0.8,1.2,1.2l0.6,0.5c0.2,0.2,0.4,0.3,0.7,0.4c1.2,0.7,2.6,1,4,1c1.4,0,2.8-0.3,4-1l0.4-0.2
			c0.3-0.2,0.7-0.4,1-0.7c0.2-0.2,0.4-0.4,0.6-0.6l0.6-0.6l0.5-0.6l0.2-0.4c0.8-1.3,1.2-2.8,1.2-4.4C-76.4,7.4-76.8,5.8-77.6,4.5
			 M-78.6,6.8l-3.1,3l0.7,4.3l-3.9-2l-3.8,2l0.7-4.3l-3.1-3l4.3-0.6l2-3.9l1.9,3.9L-78.6,6.8z"/>
		<g id="Path" transform="translate(0.000000, 12.251807)">
			<path class="st0" d="M-98.6,8.7c-0.3,0-0.6-0.1-0.8-0.3c-0.6-0.5-0.8-1.4-0.3-2L-96,1c0.5-0.6,1.4-0.8,2-0.3
				c0.6,0.5,0.8,1.4,0.3,2l-3.8,5.4C-97.8,8.5-98.2,8.7-98.6,8.7z"/>
			<path class="st0" d="M-89.7,15c-0.3,0-0.6-0.1-0.8-0.3c-0.6-0.5-0.8-1.4-0.3-2l3.8-5.4c0.5-0.6,1.3-0.8,2-0.3
				c0.6,0.5,0.8,1.4,0.3,2l-3.8,5.4C-88.8,14.8-89.2,15-89.7,15z"/>
			<path class="st0" d="M-98.6,18.3c-0.3,0-0.6-0.1-0.8-0.3c-0.6-0.5-0.8-1.3-0.3-2l7.6-10.7c0.5-0.6,1.3-0.8,2-0.3
				c0.6,0.5,0.8,1.3,0.3,2l-7.6,10.7C-97.7,18.1-98.2,18.3-98.6,18.3z"/>
		</g>
	</g>
</g>
</svg>
